<?xml version="1.0" encoding="UTF-8" standalone="no" ?>
<!DOCTYPE svg PUBLIC "-//W3C//DTD SVG 1.1//EN" "http://www.w3.org/Graphics/SVG/1.1/DTD/svg11.dtd">
<svg xmlns="http://www.w3.org/2000/svg" xmlns:xlink="http://www.w3.org/1999/xlink" version="1.1" width="48" height="48" viewBox="0 0 48 48" xml:space="preserve">
<g transform="matrix(1.22 0 0 1.22 24 24)" id="fRt0i8xZEli3nK4yRm1tW"  >
<g style="" vector-effect="non-scaling-stroke"   >
		<g transform="matrix(0.75 0 0 0.75 0 0)" id="yOovsXvhYXu3ou3LO4mzP"  >
<path style="stroke: none; stroke-width: 1; stroke-dasharray: none; stroke-linecap: butt; stroke-dashoffset: 0; stroke-linejoin: miter; stroke-miterlimit: 4; fill: rgb(50,50,56); fill-rule: nonzero; opacity: 1;" vector-effect="non-scaling-stroke"  transform=" translate(-32, -32)" d="M 6 32 C 6 17.6454 17.6454 6 32 6 C 46.3546 6 58 17.6454 58 32 C 58 46.3546 46.3546 58 32 58 C 17.6454 58 6 46.3546 6 32 z M 32 10 C 19.8546 10 10 19.8546 10 32 C 10 44.1454 19.8546 54 32 54 C 44.1454 54 54 44.1454 54 32 C 54 19.8546 44.1454 10 32 10 z" stroke-linecap="round" />
</g>
		<g transform="matrix(0.75 0 0 0.75 -4.5 0)" id="KD9XebCjg6SmxknWtGyKw"  >
<path style="stroke: none; stroke-width: 1; stroke-dasharray: none; stroke-linecap: butt; stroke-dashoffset: 0; stroke-linejoin: miter; stroke-miterlimit: 4; fill: rgb(50,50,56); fill-rule: nonzero; opacity: 1;" vector-effect="non-scaling-stroke"  transform=" translate(-26, -32)" d="M 26 22 C 27.1046 22 28 22.8954 28 24 L 28 24 L 28 40 C 28 41.1046 27.1046 42 26 42 C 24.8954 42 24 41.1046 24 40 L 24 40 L 24 24 C 24 22.8954 24.8954 22 26 22 z" stroke-linecap="round" />
</g>
		<g transform="matrix(0.75 0 0 0.75 4.5 0)" id="CKCdlVdQYnWIg_qax3Mct"  >
<path style="stroke: none; stroke-width: 1; stroke-dasharray: none; stroke-linecap: butt; stroke-dashoffset: 0; stroke-linejoin: miter; stroke-miterlimit: 4; fill: rgb(50,50,56); fill-rule: nonzero; opacity: 1;" vector-effect="non-scaling-stroke"  transform=" translate(-38, -32)" d="M 38 22 C 39.1046 22 40 22.8954 40 24 L 40 24 L 40 40 C 40 41.1046 39.1046 42 38 42 C 36.8954 42 36 41.1046 36 40 L 36 40 L 36 24 C 36 22.8954 36.8954 22 38 22 z" stroke-linecap="round" />
</g>
</g>
</g>
</svg>